<svg width="1024" height="1024" viewBox="0 0 1024 1024" fill="none" xmlns="http://www.w3.org/2000/svg">
  <rect width="1024" height="1024" rx="224" fill="#020617"/>
  <rect x="172" y="180" width="680" height="664" rx="168" fill="#2563EB"/>
  <rect x="244" y="260" width="250" height="416" rx="42" fill="white"/>
  <rect x="530" y="260" width="250" height="416" rx="42" fill="white"/>
  <path d="M492 308V734C425 690 337 690 284 724V306C344 275 426 276 492 308Z" fill="#DBEAFE"/>
  <path d="M532 308V734C599 690 687 690 740 724V306C680 275 598 276 532 308Z" fill="#DBEAFE"/>
  <path d="M306 374H444M306 452H444M306 530H410" stroke="#1E3A8A" stroke-width="34" stroke-linecap="round"/>
  <path d="M580 374H718M580 452H718M580 530H684" stroke="#1E3A8A" stroke-width="34" stroke-linecap="round"/>
  <path d="M512 294V746" stroke="white" stroke-width="38" stroke-linecap="round"/>
</svg>
